<?xml version="1.0" standalone="no"?>
<!DOCTYPE svg PUBLIC "-//W3C//DTD SVG 20010904//EN"
 "http://www.w3.org/TR/2001/REC-SVG-20010904/DTD/svg10.dtd">
<svg version="1.0" xmlns="http://www.w3.org/2000/svg"
 width="342.000000pt" height="342.000000pt" viewBox="0 0 342.000000 342.000000"
 preserveAspectRatio="xMidYMid meet">
<metadata>
Created by potrace 1.11, written by Peter Selinger 2001-2013
</metadata>
<g transform="translate(0.000000,342.000000) scale(0.100000,-0.100000)"
fill="#000000" stroke="none">
<path d="M0 1710 l0 -1710 1710 0 1710 0 0 1710 0 1710 -1710 0 -1710 0 0
-1710z m1407 1239 c412 -79 826 -321 1100 -642 248 -291 415 -652 464 -1000
15 -105 5 -148 -43 -194 -27 -26 -60 -40 -188 -76 -85 -24 -158 -42 -162 -40
-5 2 -8 28 -8 56 0 73 -25 227 -55 348 -70 277 -207 522 -400 714 -123 123
-243 209 -400 286 -200 98 -409 154 -622 166 -56 3 -107 9 -113 13 -9 5 -2 46
25 146 40 151 51 178 87 211 52 49 113 51 315 12z m-172 -560 c591 -106 1015
-518 1144 -1114 21 -97 47 -312 38 -321 -3 -3 -436 -125 -963 -271 -882 -244
-961 -264 -984 -251 -13 7 -31 25 -38 38 -13 23 8 109 233 970 135 520 248
953 251 964 6 17 14 18 108 11 55 -4 151 -16 211 -26z"/>
<path d="M1235 1966 c-101 -44 -125 -178 -46 -257 65 -65 157 -65 222 0 124
124 -15 327 -176 257z"/>
<path d="M1755 1446 c-101 -44 -125 -178 -46 -257 65 -65 157 -65 222 0 124
124 -15 327 -176 257z"/>
<path d="M995 1206 c-101 -44 -125 -178 -46 -257 65 -65 157 -65 222 0 124
124 -15 327 -176 257z"/>
</g>
</svg>
